<svg xmlns="http://www.w3.org/2000/svg" version="1.1" xmlns:xlink="http://www.w3.org/1999/xlink" xmlns:svgjs="http://svgjs.com/svgjs" width="1440" height="560" preserveAspectRatio="none" viewBox="0 0 1440 560">
    <g mask="url(&quot;#SvgjsMask1004&quot;)" fill="none">
        <rect width="1440" height="560" x="0" y="0" fill="rgba(34, 40, 49, 1)"></rect>
        <path d="M -938.0375145754626,375 C -842.04,312 -650.04,37.2 -458.0375145754626,60 C -266.04,82.8 -170.04,462.6 21.96248542453742,489 C 213.96,515.4 309.96,210.6 501.9624854245374,192 C 693.96,173.4 794.35,389 981.9624854245374,396 C 1169.57,403 1348.39,260.8 1440,227" stroke="rgba(57, 62, 70, 1)" stroke-width="2"></path>
        <path d="M -401.65265419533023,293 C -305.65,287.2 -113.65,252.4 78.34734580466974,264 C 270.35,275.6 366.35,365.8 558.3473458046698,351 C 750.35,336.2 846.35,187.8 1038.3473458046697,190 C 1230.35,192.2 1438.02,357.2 1518.3473458046697,362 C 1598.68,366.8 1455.67,243.6 1440,214" stroke="rgba(57, 62, 70, 1)" stroke-width="2"></path>
        <path d="M -836.2278229745859,409 C -740.23,346.8 -548.23,101 -356.22782297458593,98 C -164.23,95 -68.23,364.4 123.77217702541407,394 C 315.77,423.6 411.77,236 603.7721770254141,246 C 795.77,256 916.53,474 1083.772177025414,444 C 1251.02,414 1368.75,165.6 1440,96" stroke="rgba(57, 62, 70, 1)" stroke-width="2"></path>
        <path d="M -510.41383921570895,250 C -414.41,295.6 -222.41,480.4 -30.41383921570894,478 C 161.59,475.6 257.59,237.4 449.58616078429105,238 C 641.59,238.6 737.59,500.6 929.5861607842911,481 C 1121.59,461.4 1307.5,137.8 1409.586160784291,140 C 1511.67,142.2 1433.92,421.6 1440,492" stroke="rgba(57, 62, 70, 1)" stroke-width="2"></path>
    </g>
    <defs>
        <mask id="SvgjsMask1004">
            <rect width="1440" height="560" fill="#ffffff"></rect>
        </mask>
    </defs>
</svg>